<svg xmlns="http://www.w3.org/2000/svg" viewBox="0 0 2000 2000"><g data-name="Layer 1"><g data-name="Bio Energy"><path fill="#daf2af" d="M1087.661 1282.104c4.296-6.99 8.66-14.146 10.459-22.152 2.126-9.462.502-19.316-1.128-28.877-1.744-10.235-5.638-22.716-15.898-24.305-6.997-1.083-13.518 3.86-17.977 9.36-8.276 10.209-12.647 22.98-19.535 34.17s-17.934 21.483-31.074 21.265c-5.447-10.915.331-24.167 8.02-33.637s17.539-17.67 21.902-29.06c3.273-8.546 3.072-17.973 2.754-27.117-.249-7.135-.583-14.456-3.403-21.015s-8.7-12.289-15.82-12.832c-12.65-.965-20.566 13.373-23.555 25.703s-5.925 27.002-17.524 32.141a42.79 42.79 0 0 1-2.574-42.788c3.236-6.264 8.03-11.67 10.834-18.14s3.1-14.872-1.98-19.761c-7.352-7.077-19.547-2.194-27.899 3.67a178.418 178.418 0 0 0-24.7 20.939 81.94 81.94 0 0 1 21.965-43.913c3.449-3.554 7.29-6.88 9.598-11.261s2.689-10.26-.638-13.927c-2.45-2.7-6.257-3.603-9.82-4.37-9.761-2.103-19.983-4.197-29.606-1.534-12.92 3.575-22.696 16.338-22.782 29.742-3.856-17.983 9.256-34.576 19.337-49.96 3.844-5.865 7.469-12.994 5.134-19.606-3.537-10.015-17.084-11.039-27.677-10.261-4.346.319-9.006.76-12.344 3.56-4.766 4-5.017 11.052-6.193 17.161s-5.45 13.1-11.61 12.232c-6.5-19.985-26.814-31.536-45.473-41.206-3.819-1.98-8.112-4.017-12.254-2.86-7.441 2.079-8.453 12.992-4.157 19.412s11.624 10.006 17.49 15.033a43.683 43.683 0 0 1 14.314 24.547c.362 1.844.554 3.925-.55 5.446-.982 1.353-2.719 1.882-4.335 2.308-4.653 1.226-9.523 2.372-13.252 5.412s-5.883 8.646-3.436 12.79c1.498 2.537 4.302 3.954 6.955 5.236l48.042 23.223c2.928 1.415 6.403 4.14 5.133 7.134-.595 1.401-2.07 2.183-3.451 2.824a103.125 103.125 0 0 1-40.81 9.525c-1.628 11.193 8.661 20.855 19.36 24.521s22.416 3.585 33.078 7.36 20.782 13.711 18.813 24.85c-12.787 1.915-25.476-2.881-38.025-5.996s-27.08-4.18-37.21 3.853c21.135 18.667 47.207 38.672 74.595 31.962 8.256-2.023 16.892-6.434 24.775-3.254 9.453 3.813 11.597 17.7 5.59 25.935s-17.327 11.093-27.439 9.806-19.41-5.999-28.618-10.373-18.874-8.556-29.067-8.658c2.93 26.446 23.906 53.084 50.491 52.009 10.554-.427 20.637-5.059 31.198-5.18s22.767 7.286 21.618 17.785c-1.118 10.215-14.033 14.972-24.106 12.942s-18.81-8.302-28.705-11.07-22.932-.246-26.267 9.473c-.22 10.802 8.133 19.829 16.908 26.132a103.857 103.857 0 0 0 74.301 18.276c7.043-.997 14.093-2.731 21.178-2.095 6.053.543 11.802 2.792 17.697 4.27 16.761 4.204 42.9-.168 48.363-19.434-2.91-.01-5.643-2.53-7.865-2.947 9.4-22.373 26.092-43.645 38.855-64.418Z"/><path fill="#eaffbb" d="M989.315 1416.847c.515-5.03 1.024-10.17-.119-15.097-1.35-5.822-4.887-10.859-8.35-15.731-3.705-5.216-9.205-11.105-15.326-9.242-4.175 1.27-6.474 5.758-7.479 10.005-1.864 7.881-.875 16.14-1.706 24.197s-4.211 16.723-11.565 20.117c-5.944-4.603-6.28-13.506-4.544-20.82s5.012-14.502 4.387-21.994c-.468-5.62-3.1-10.8-5.723-15.791-2.047-3.895-4.19-7.87-7.51-10.758s-8.118-4.496-12.216-2.893c-7.281 2.847-7.842 12.926-6.203 20.57s3.932 16.577-1.133 22.533a26.37 26.37 0 0 1-12.874-23.068c.122-4.344 1.337-8.628 1.164-12.97s-2.257-9.086-6.385-10.442c-5.975-1.962-11.44 4.01-14.508 9.5a109.953 109.953 0 0 0-8.114 18.232 50.497 50.497 0 0 1 .45-30.256c.965-2.895 2.207-5.77 2.317-8.82s-1.25-6.414-4.08-7.56c-2.08-.845-4.436-.328-6.62.199-5.982 1.444-12.217 3.015-16.848 7.067a19.705 19.705 0 0 0-4.693 22.607c-6.952-8.953-4.11-21.673-2.627-32.91.565-4.285.671-9.213-2.394-12.26-4.642-4.614-12.438-1.559-18.11 1.706-2.328 1.34-4.798 2.83-5.902 5.279-1.577 3.495.17 7.478 1.151 11.184s.479 8.73-3.174 9.897c-8.954-9.358-23.322-10.338-36.268-10.716-2.65-.078-5.578-.06-7.569 1.69-3.575 3.144-1.218 9.474 2.884 11.89s9.13 2.445 13.732 3.668a26.92 26.92 0 0 1 14.513 9.8 4.298 4.298 0 0 1 1.15 3.17 4.567 4.567 0 0 1-1.789 2.442c-2.255 1.925-4.653 3.864-5.91 6.55s-.953 6.373 1.513 8.019c1.51 1.008 3.446 1.045 5.262 1.047l32.885.044c2.004.003 4.663.586 4.758 2.588a3.885 3.885 0 0 1-1.16 2.491 63.553 63.553 0 0 1-20.112 16.204c2.09 6.65 10.387 9.262 17.309 8.436s13.404-4.005 20.333-4.76 15.206 2.053 17.092 8.764c-6.587 4.484-14.916 5.215-22.716 6.842s-16.153 4.922-19.63 12.091c16.728 4.712 36.555 8.845 49.966-2.206 4.043-3.331 7.658-8.09 12.885-8.433 6.268-.411 11.173 6.726 10.04 12.905s-6.653 10.793-12.611 12.783-12.382 1.861-18.664 1.895-12.767.298-18.454 2.968c8.7 13.899 27.471 23.078 41.944 15.37 5.746-3.059 10.105-8.327 15.936-11.22s14.59-2.044 16.76 4.093c2.111 5.97-3.787 12.066-9.923 13.633s-12.664.421-18.898 1.531-12.798 5.997-12.05 12.285c2.767 6.056 9.819 8.834 16.377 9.987a64.005 64.005 0 0 0 46.141-9.726c3.644-2.437 7.094-5.286 11.198-6.828 3.506-1.317 7.299-1.606 10.968-2.362 10.43-2.15 23.773-11.568 21.654-23.726-1.62.774-3.81.105-5.156.468-.765-14.936 2.813-31.212 4.344-46.158Z"/><path fill="#daf2af" d="m1260.458 1314.839-1.651-.844c-36.347-18.381-76.463-24.836-115.264-31.07-19.817-3.183-40.297-6.476-60.104-11.325-51.099-12.478-117.758-43.449-145.135-120.097-18.643-52.204-15.22-114.611-11.916-174.966 3.232-58.9 6.565-119.807-10.602-171.091-2.921-8.694-6.445-17.137-9.858-25.299-2.33-5.567-4.738-11.324-6.937-17.132-13.141-34.73-18.351-70.685-15.039-103.97 3.825-38.72 20.179-74.655 42.667-93.784 20.67-17.579 46.812-23.417 82.28-18.327a264.841 264.841 0 0 1 95.02 33.134c6.395 3.685 12.8 7.71 19.004 11.6 16.012 10.064 32.577 20.47 50.235 25.746 21.996 6.57 45.683 5.22 68.622 3.9 25.47-1.461 51.817-2.972 76.062 6.324 17.377 6.621 58.301-30.483 97.85-66.428 38.761-35.217 75.424-68.462 92.922-64.175 3.99.974 6.877 3.81 8.578 8.418l-1.204.446 1.205-.446c34.082 92.234 125.749 245.822 197.423 313.314 27.974 26.343 40.498 56.646 37.215 90.071-12.363 125.845-246.66 272.591-372.53 351.428-35.81 22.427-64.095 40.136-76.975 50.788-5.476 4.527-11.45 8.884-17.99 10.079a20.954 20.954 0 0 1-3.845.351c-7.032 0-13.628-3.373-20.033-6.645Zm156.961-751.727c-41.973 38.139-81.578 74.194-100.501 66.926-23.727-9.09-49.799-7.6-74.992-6.16-23.14 1.316-47.083 2.691-69.51-4.005-17.99-5.376-34.706-15.872-50.869-26.026-6.174-3.88-12.559-7.891-18.913-11.55a262.422 262.422 0 0 0-94.097-32.823c-34.715-4.95-60.194.683-80.252 17.744-22.006 18.713-38.008 53.995-41.783 92.079-3.262 32.898 1.888 68.446 14.898 102.805 2.179 5.767 4.578 11.505 6.897 17.056 3.434 8.202 6.977 16.685 9.919 25.474 17.337 51.752 13.984 112.905 10.742 172.045-3.293 60.099-6.696 122.24 11.775 173.962 26.986 75.575 92.832 106.133 143.308 118.472 19.717 4.818 40.147 8.101 59.914 11.273 38.991 6.275 79.308 12.75 116.016 31.322l1.657.844c7.183 3.664 14.612 7.489 22.246 6.053 5.963-1.084 11.605-5.22 16.816-9.537 13.01-10.752 41.356-28.501 77.245-50.978 125.499-78.606 359.098-224.911 371.336-349.501 3.202-32.592-9.05-62.182-36.417-87.952-71.925-67.724-163.893-221.789-198.07-314.289-1.411-3.815-3.63-6.043-6.782-6.811a11.443 11.443 0 0 0-2.776-.317c-17.493 0-53.207 32.457-87.807 63.894Z"/><path fill="#f2f2f2" d="M747.359 1089.13c5.243 6.168 12.953 9.664 20.457 12.953q71.395 31.92 142.995 63.737c14.803 6.578 30.532 13.877 39.372 27.55 7.197 11.205 8.739 24.98 9.253 38.344 2.57 71.96-20.15 142.481-26.01 214.339-1.85 22.821-.307 49.344 17.786 63.325 10.897 8.43 25.391 10.177 39.064 10.28 161.601 1.13 281.878-180.106 443.377-176.817 9.971.206 20.354 1.234 28.68 6.683 6.169 4.009 10.692 10.074 16.038 15.11 18.4 17.271 45.849 21.486 70.726 17.786a135.318 135.318 0 0 0 27.345-7.094c40.606-15.009 74.016-48.316 95.913-86.352 26.625-46.26 38.756-99.202 50.475-151.22 5.962-26.11 33.82-92.108 23.54-116.471-4.522-10.59-26.522-21.897-34.129-32.383a114.673 114.673 0 0 1-20.251-46.26c-4.73-24.57-1.337-50.063-6.374-74.53-5.037-24.466-22.822-49.55-47.802-50.064-17.476-.41-39.68 9.56-49.344-5.037-4.112-6.27-3.29-14.495-2.16-21.896 14.496-92.006 56.335-186.274 26.627-274.477-76.073-1.644-142.276 48.42-201.592 96.118-2.056-29.503-9.766-66.1-38.55-72.885-14.495-3.392-29.4 2.776-43.176 8.738q-80.184 35.158-160.471 70.316a219.08 219.08 0 0 0-30.635-74.53c-26.83 17.476-54.073 35.466-73.81 60.651-26.214 33.513-36.597 76.69-58.7 113.08-39.269 64.868-116.471 111.642-122.743 187.2-1.85 21.177 1.85 44.923-11.41 61.474-4.524 5.552-10.383 9.663-16.654 13.159q-4.01 2.313-8.019 4.317c-19.325 10.075-38.652 20.046-58.081 30.12-14.598 7.608-29.813 15.626-39.681 28.887-9.972 13.262-12.85 33.205-2.056 45.85Z"/><path fill="#e6e6e6" d="M747.359 1089.13c5.243 6.168 12.953 9.664 20.457 12.953q71.395 31.92 142.995 63.737c14.803 6.578 30.532 13.877 39.372 27.55 7.197 11.205 8.739 24.98 9.253 38.344 2.57 71.96-20.15 142.481-26.01 214.339-1.85 22.821-.307 49.344 17.786 63.325 10.897 8.43 25.391 10.177 39.064 10.28 161.601 1.13 281.878-180.106 443.377-176.817 9.971.206 20.354 1.234 28.68 6.683 6.169 4.009 10.692 10.074 16.038 15.11 18.4 17.271 45.849 21.486 70.726 17.786a135.318 135.318 0 0 0 27.345-7.094q2.468-8.481 4.626-16.962c15.215-60.55 16.962-126.855 51.709-178.77 5.448-8.12 11.822-16.14 13.57-25.802 2.672-15.009-6.477-29.401-15.832-41.531-62.708-81.521-150.191-139.911-222.768-212.797a776.58 776.58 0 0 1-68.773-79.362c-18.299-24.363-39.27-52.222-69.7-54.278-12.54-.925-24.877 2.981-36.698 7.196-45.336 16.345-88.923 39.475-123.258 73.297-28.475 27.96-49.652 62.502-76.072 92.52s-60.447 56.54-100.23 60.24c-26.934 2.57-52.53-9.046-77.82-19.12q-4.01 2.313-8.019 4.317c-19.326 10.075-38.652 20.046-58.081 30.12-14.598 7.608-29.813 15.626-39.681 28.887-9.972 13.262-12.85 33.205-2.056 45.85Z"/><path fill="#fff" d="M1219.596 1026.52h-22.965l237.691-507.33h22.965l-237.691 507.33zM1292.732 1026.52h-22.965l237.69-507.33h22.965l-237.69 507.33zM1365.867 1026.52h-22.965l237.691-507.33h22.965l-237.691 507.33zM1439.003 1026.52h-22.965l237.69-507.33h22.965l-237.69 507.33zM1512.138 1026.52h-22.965l237.691-507.33h22.964l-237.69 507.33zM1585.274 1026.52h-22.965l237.69-507.33h22.965l-237.69 507.33z"/><path fill="#154048" d="m537.792 703.452-65.615-39.265a8.752 8.752 0 0 1-3.604-11.841l61.671-123.499c2.275-4.265 11.737-5.83 16.003-3.556l69.388 37.002a8.752 8.752 0 0 1 3.604 11.842l-65.832 123.45c-2.275 4.266-11.35 8.141-15.615 5.867Z"/><path fill="#2b808f" d="m536.245 702.81-69.389-37.003a8.752 8.752 0 0 1-3.604-11.841l65.832-123.451a8.753 8.753 0 0 1 11.841-3.605l69.389 37.003a8.752 8.752 0 0 1 3.604 11.841l-65.832 123.451a8.752 8.752 0 0 1-11.841 3.605Z"/><path fill="#fff" d="M501.755 542.889h73.66a8.09 8.09 0 0 1 8.09 8.09v127.762a8.09 8.09 0 0 1-8.09 8.09h-73.66a8.09 8.09 0 0 1-8.09-8.09V550.979a8.09 8.09 0 0 1 8.09-8.09Z" transform="rotate(28.07 538.585 614.86)"/><path fill="#fff" d="M575.539 548.82a1.532 1.532 0 1 1-.631-2.073 1.532 1.532 0 0 1 .63 2.072ZM579.569 550.968a.58.58 0 1 1-.24-.785.58.58 0 0 1 .24.785Z"/><path fill="#b4e55f" d="M1430.043 1534.024c4.928 2.027 9.968 4.081 15.287 4.403 6.288.38 12.436-1.685 18.396-3.723 6.38-2.182 13.977-5.975 13.93-12.718-.033-4.598-3.879-8.265-7.868-10.552-7.405-4.245-16.046-5.72-23.937-8.974s-15.635-9.265-16.86-17.711c6.43-4.626 15.527-2.299 22.397 1.647s13.15 9.408 20.906 11.021c5.818 1.21 11.84.102 17.67-1.052 4.549-.9 9.207-1.875 13.12-4.365s6.973-6.855 6.582-11.475c-.696-8.21-10.71-11.795-18.925-12.43s-17.927-.993-22.426-7.895a27.79 27.79 0 0 1 27.163-6.096c4.352 1.424 8.316 3.935 12.755 5.06s9.856.443 12.463-3.322c3.773-5.449-.625-12.76-5.253-17.504a115.88 115.88 0 0 0-15.99-13.66 53.216 53.216 0 0 1 30.435 9.519c2.637 1.842 5.168 3.958 8.217 4.983s6.856.658 8.862-1.856c1.476-1.85 1.66-4.385 1.781-6.75.334-6.476.614-13.246-2.093-19.139a20.766 20.766 0 0 0-21.434-11.514c11.128-4.342 23.128 2.34 34.038 7.205 4.159 1.855 9.106 3.438 13.103 1.254 6.052-3.308 5.301-12.1 3.702-18.81-.656-2.752-1.423-5.694-3.565-7.543-3.06-2.64-7.606-2.068-11.645-2.187s-8.965-2.133-9.048-6.173c12.137-6.242 17.431-20.466 21.692-33.433.872-2.654 1.732-5.617.56-8.153-2.106-4.554-9.207-4.07-12.877-.648s-5.206 8.492-7.82 12.775a28.37 28.37 0 0 1-14.25 11.727 4.53 4.53 0 0 1-3.548.213 4.813 4.813 0 0 1-1.93-2.54c-1.27-2.855-2.51-5.858-4.847-7.933s-6.154-2.873-8.556-.874c-1.47 1.224-2.088 3.169-2.634 5.003l-9.896 33.212c-.603 2.024-1.99 4.536-4.04 4.032a4.094 4.094 0 0 1-2.17-1.92 66.975 66.975 0 0 1-10.346-25.172c-7.345.12-12.47 7.72-13.709 14.96s.031 14.742-1.281 21.97-6.631 14.748-13.976 14.643c-2.557-7.999-.8-16.632-.107-25s-.134-17.795-6.337-23.456c-9.77 15.49-19.887 34.283-12.74 51.144 2.155 5.082 5.88 10.16 4.661 15.544-1.462 6.457-10.143 9.274-16.046 6.279s-8.912-9.956-9.137-16.572 1.829-13.067 3.676-19.424 3.524-12.99 2.53-19.534c-16.649 4.626-31.547 20.84-28.096 37.773 1.37 6.721 5.388 12.704 6.563 19.462s-2.305 15.353-9.156 15.707c-6.665.345-11.056-7.441-10.801-14.11s3.368-12.92 4.114-19.552-2.225-14.727-8.802-15.856c-6.948.983-11.867 7.275-14.997 13.555a67.45 67.45 0 0 0-3.996 49.533c1.371 4.411 3.215 8.751 3.544 13.36.28 3.936-.564 7.855-.9 11.788-.953 11.182 4.566 27.485 17.485 28.986-.296-1.867 1.035-3.88 1.072-5.349 15.32 3.701 30.691 12.193 45.335 18.217Z"/><path fill="#fff" d="M1352.332 1528.89a1.041 1.041 0 0 1 .044-.521c7.301-20.622 33.19-37.156 65.978-58.088 35.84-22.882 80.448-51.356 113.24-95.035a1.047 1.047 0 0 1 1.671 1.26c-33.018 43.981-77.801 72.568-113.784 95.54-32.443 20.717-58.071 37.074-65.13 57.017a1.046 1.046 0 0 1-2.02-.173Z"/><path fill="#eaffbb" d="M1358.372 1113.46a270.145 270.145 0 0 0-57.986 120.555c-8.712 44.057-10.619 86.411 1.937 130.267 3.246 11.34 8.036 23.38 18.284 29.22 10.336 5.888 23.767 3.638 33.907-2.583s17.683-15.808 24.943-25.233c32.9-42.716 65.518-88.374 75.132-141.428 7.954-43.895-.586-89.313 5.297-133.535 1.723-12.952 17.215-31.089 14.755-42.337-1.312-5.998-56.895 16.262-61.78 18.916-19.892 10.806-36.173 25.113-51.051 42.145q-1.739 1.99-3.438 4.014Z"/><path fill="#fff" d="M1441.403 1172.784a212.917 212.917 0 0 0-23.25-2.646c-5.492-.429-11.186-.864-16.973-.084-7.957 1.099-15.233 4.47-21.918 8.19 16.147-40.31 36.993-75.571 63.775-95.408a3.081 3.081 0 1 0-3.67-4.95c-42.25 31.299-69.929 97.811-87.766 163.47a101.832 101.832 0 0 1-3.509-6.004l-10.04-18.435a26.142 26.142 0 0 0-7.946-9.629l-7.735-6.587a3.084 3.084 0 1 0-4.007 4.689l7.757 6.594a29.399 29.399 0 0 1 4.152 4.011 27.56 27.56 0 0 1 2.375 3.886l10.044 18.424a70.436 70.436 0 0 0 6.024 9.772 2.892 2.892 0 0 0 .941.676c-8.016 30.718-13.925 60.915-18.176 86.947-.157-.262-.262-.635-.412-.875l-8.27-13.003a24.04 24.04 0 0 0-11.872-10.605l-6.4-3.37a2.97 2.97 0 0 0-4.156 1.287 3.078 3.078 0 0 0 1.286 4.156l6.454 3.4a25.678 25.678 0 0 1 6.351 4.169 25.142 25.142 0 0 1 3.133 4.266l8.297 13.036a8.13 8.13 0 0 1 1.05 2.023c.34 1.469.889 3.29 1.452 5.105.386 1.261.727 2.436 1.026 3.54-5.429 35.931-7.523 61.483-7.775 64.739a3.066 3.066 0 0 0 2.047 3.148 2.913 2.913 0 0 0 .773.155 3.058 3.058 0 0 0 3.303-2.82c.082-1.004 3.278-39.923 12.482-91.356l16.485-21.342a44.613 44.613 0 0 1 7.075-7.82c3.362-2.658 7.826-4.537 14.098-5.9a60.541 60.541 0 0 1 19.85-1.331 3.083 3.083 0 0 0 .688-6.128 67.301 67.301 0 0 0-21.863 1.443c-4.535.988-11.193 2.802-16.59 7.093a50.013 50.013 0 0 0-8.16 8.918l-9.12 11.805c7.375-38.433 18.004-82.203 32.992-122.004 7.924-4.748 16.838-9.966 26.311-11.275 5.132-.69 10.492-.283 15.677.115a210.32 210.32 0 0 1 22.566 2.56 3.078 3.078 0 0 0 3.595-2.45 3 3 0 0 0-2.45-3.595Z"/><path fill="#daf2af" d="m1579.853 1257.825 51.913-16.371a264.973 264.973 0 0 0 33.502-46.566c12.518-22.54 21.015-47.088 28.15-71.863q2.844-9.872 5.356-19.9l-33.871 19.198 40.642-50.396c7.718-41.52 9.652-83.919-.317-124.697-4.057-16.594-10.564-33.507-23.674-44.46-20.962-17.513-54.12-14.127-75.809 2.477-21.688 16.604-33.384 43.404-38.696 70.197-.465 2.345-.694 4.721-1.08 7.077l28.04 60.436-31.578-30.008c-1.092 14.663-1.774 29.385-3.267 44.008-3.424 33.533-11.392 66.492-21.852 98.536-2.467 7.561-5.106 15.103-7.966 22.558l1.581 51.64-11.9-27.599a200.961 200.961 0 0 1-26.078 41.387c-12.562 15.108-27.745 27.85-43.695 39.323-27.84 20.023-58.767 36.878-80.691 63.245-27.475 33.04-37.344 76.15-52.35 115.44-9.1 23.826-2.666 28.763 20.879 17.09a129.548 129.548 0 0 0 41.99-33.28c11.185-13.513 19.528-29.171 30.523-42.838 33.323-41.426 86.507-60.027 132.31-87.023a376.156 376.156 0 0 0 71.763-55.206Z"/><path fill="#fff" d="M1324.503 1505.103a3.947 3.947 0 0 1-2.78-2.9c-.919-3.867-20.721-95.981 124.629-193.04 137.638-91.925 191.66-187.548 192.699-341.066a3.956 3.956 0 1 1 7.911.049c-1.068 156.533-56.08 253.983-196.224 347.58-140.826 94.049-121.54 183.765-121.333 184.667a3.936 3.936 0 0 1-2.936 4.746 3.837 3.837 0 0 1-1.966-.036Z"/><path fill="#bfeaf2" fill-rule="evenodd" d="M671.07 954.71v444.662a45.5 45.5 0 0 1-45.472 45.472H450.586a45.473 45.473 0 0 1-45.345-45.472V954.71a45.348 45.348 0 0 1 44.454-45.345v-41.269a41.259 41.259 0 0 1 41.27-41.268h94.383a41.259 41.259 0 0 1 41.269 41.268v41.27a45.647 45.647 0 0 1 44.454 45.344Z"/><path fill="#fff" d="M405.237 1316.166H671.03v30.495H405.237zM405.237 1180.845H671.03v30.494H405.237zM405.237 1045.524H671.03v30.494H405.237z"/><path fill="#8fd80f" d="m504.427 1020.87 87.864 8.665-43.715 88.306 85.169 38.211-157.698 163.044 58.549-141.365-57.656-31.802 27.487-125.059z"/><path fill-rule="evenodd" d="M671.07 954.71v444.662a45.5 45.5 0 0 1-45.472 45.472H450.586a45.473 45.473 0 0 1-45.345-45.472v-87.124a64.49 64.49 0 0 1 17.196-.764c22.418 1.91 42.16 14.775 60.503 27.64 18.342 12.992 37.065 26.749 59.101 31.079 22.036 4.33 48.275-3.949 57.063-24.583 4.968-11.463 3.566-24.583 3.312-37.193-1.528-61.65 23.055-121.132 26.62-182.654 2.549-42.415-4.966-84.703-3.82-127.119.509-17.45 6.369-73.112 30.187-78.08a45.122 45.122 0 0 1 15.668 34.136Z" opacity=".1"/><path fill-rule="evenodd" d="M1278.313 876.868c-10.14-6.52-17.426-10.732-21.668-22.016-3.078-8.186-1.32-14.028 1.303-22.371 4.025-12.808 16.638-15.957 18.005-29.314 1.22-11.934-12.102-17.026-10.452-28.909 1.86-13.397 9.35-20.1 20.22-28.148 15.606-11.554 28.419-21.184 47.123-15.968 14.604 4.073 23.861 14.594 25.033 29.711 1.283 16.545-16.197 20.826-22.058 36.35-3.856 10.215-3.482 16.718-4.913 27.54-3.043 23.018 9.246 41.043-5.133 59.272-4.072 5.161-9.409 5.413-15.982 5.32-13.073-.182-20.48-4.396-31.478-11.467Z"/><path fill="#ffc7a1" fill-rule="evenodd" d="M1339.017 832.941c-5.222 13.757-28.786 34.391-58.592 54.134-52.095 34.391-123.552 65.852-152.848 52.733q-30.76-18.534-75.915-177.177c-1.4-4.967-2.93-10.062-4.33-15.284l21.399-8.535 74.768 152.594q55.6-32.29 117.439-62.54c30.187-15.923 81.518-15.795 78.079 4.075Z"/><path fill-rule="evenodd" d="M1280.425 887.075c-52.095 34.391-123.552 65.852-152.848 52.733q-30.76-18.534-75.915-177.177a24.861 24.861 0 0 1 2.42 3.312c5.478 8.789 9.553 18.342 13.757 27.767 9.935 22.545 19.998 45.09 29.933 67.635 6.369 14.394 13.374 29.551 25.857 39.104 14.393 10.827 34.008 12.738 51.713 8.789 17.578-3.821 33.627-12.61 49.294-21.653 15.666-8.916 31.461-18.088 48.784-22.673a4.924 4.924 0 0 1 3.312 0 3.789 3.789 0 0 1 1.528 2.548 51.2 51.2 0 0 1 2.165 19.615Z" opacity=".1"/><path fill="#ffc7a1" fill-rule="evenodd" d="M1068.684 738.824c-1.347-10.619-15.42-31.601-28.47-37.487s-19.466 40.712-8.444 46.316 15.614-.354 15.614-.354Z"/><path fill="#5f900a" fill-rule="evenodd" d="M1237.246 1525.854c-15.54 31.46-47.51 53.623-80.882 56.044a69.702 69.702 0 0 1-13.63-.127 81.914 81.914 0 0 1-17.959-3.694c-13.501-4.586-26.366-13.12-37.575-26.112q28.468-38.02 75.66-57.19l1.273.509 72.476 30.315Z"/><path fill="#2b808f" fill-rule="evenodd" d="M1156.619 1640.744c-8.152 1.53-17.578 3.567-27.513 5.095-21.654 3.44-46.491 5.096-69.292-3.184-10.19-27.13 36.302-7.005 66.235-44.708a39.211 39.211 0 0 0 9.808 9.171c11.081 7.133 17.704-1.02 17.704-1.02 4.714 12.483 5.732 24.075 3.058 34.646Z"/><path fill="#ffc7a1" fill-rule="evenodd" d="m1162.35 1531.203-.891 7.133-5.095 43.562-2.803 24.2s-6.623 8.153-17.704 1.02a39.211 39.211 0 0 1-9.808-9.171l-1.274-19.87-2.675-43.562-.382-6.241 23.437 1.656Z"/><path fill="#304805" fill-rule="evenodd" d="M1286.667 1128.448c-24.965 51.331-64.324 89.417-94.511 128.52l44.453 268.63.127.51c-23.437 30.57-48.02 19.744-75.277 12.228a150.648 150.648 0 0 0-16.687-3.821 75.128 75.128 0 0 0-22.672 0c-11.081 1.783-22.673 6.878-34.9 17.45l-.128.128 43.435-290.922q26.748-117.884 91.327-238.189l87.633 24.457a234.989 234.989 0 0 1-22.8 81.01Z"/><path fill-rule="evenodd" d="m1236.609 1525.599.637.255c-15.54 31.46-47.51 53.624-80.882 56.044l-2.803 24.2c4.714 12.483 5.732 24.075 3.058 34.646-8.152 1.53-17.578 3.567-27.513 5.095a28.463 28.463 0 0 1-8.025-8.916 138.265 138.265 0 0 0 14.776-29.805 146.271 146.271 0 0 0 6.878-25.347 151.747 151.747 0 0 0 2.292-28.405c-.127-6.241-.509-12.61-.255-18.851a27.817 27.817 0 0 1 .383-4.585 43.634 43.634 0 0 1 2.037-9.172c3.44-9.68 10.573-17.322 16.941-25.474 0-.128.128-.255.255-.382a126.323 126.323 0 0 0 25.347-82.156c-2.675-51.46-36.683-100.498-25.983-150.81 3.566-16.814 11.845-32.098 19.997-47.002 6.878-12.61 13.629-25.092 20.507-37.574 9.043-16.687 18.724-33.882 34.773-43.944 13.884-8.662 32.226-10.445 47.638-4.968-24.965 51.331-64.324 89.417-94.511 128.52Z" opacity=".1"/><path fill="#5f900a" fill-rule="evenodd" d="M1391.495 1527.255c-10.954 33.244-39.486 59.61-72.22 66.616a12.883 12.883 0 0 1-3.185.764 74.843 74.843 0 0 1-28.66-.127c-13.883-2.547-27.894-9.044-40.886-20.508.127-.127.127-.254.255-.381q22.927-41.461 66.743-66.744l6.115 1.656 71.328 18.596Z"/><path fill="#2b808f" fill-rule="evenodd" d="M1327.809 1652.208c-7.643 2.548-16.304 5.732-25.73 8.534-21.144 6.624-45.855 11.846-69.928 6.751-13.884-25.475 34.9-11.973 59.356-53.37 14.393 15.413 23.437 9.553 26.876 5.987a10.137 10.137 0 0 0 1.528-1.91c6.369 11.718 8.916 23.054 7.898 34.008Z"/><path fill="#ffc7a1" fill-rule="evenodd" d="M1319.91 1618.2a10.137 10.137 0 0 1-1.527 1.91c-3.44 3.567-12.483 9.426-26.876-5.986l-4.076-19.616-8.661-42.798-1.274-5.986 29.677-2.038 10.955-.765.128 7.133 1.018 43.817Z"/><path fill="#304805" fill-rule="evenodd" d="m1390.986 1527.127.127.383c-18.979 33.499-44.836 26.111-72.857 22.544a173.7 173.7 0 0 0-11.72-1.146c-9.042-.51-18.341-.127-27.766 2.802-10.7 3.312-21.4 9.808-31.971 21.909l-.382.381 2.548-293.977q10.125-120.56 57.318-248.761l49.547 6.624 40.633 5.477c4.33 97.822-51.204 161-86.996 223.795Z"/><path fill-rule="evenodd" d="m1390.986 1527.127.51.128c-10.955 33.244-39.487 59.61-72.222 66.616l.637 24.328c6.369 11.719 8.916 23.055 7.898 34.01-7.643 2.547-16.304 5.731-25.73 8.533 8.025-12.738 14.648-26.239 16.303-40.632a48.728 48.728 0 0 0 .383-8.662 68.135 68.135 0 0 0-2.675-16.813c-3.694-15.284-10.317-30.188-9.553-45.727a28.954 28.954 0 0 1 .255-3.312 10.224 10.224 0 0 1 .382-1.91c1.529-9.68 5.986-18.724 9.68-27.768 1.02-2.42 1.911-4.84 2.803-7.387a190.878 190.878 0 0 0 7.005-106.485c-9.68-43.306-34.391-83.811-33.244-128.138.509-16.43 4.585-32.607 9.298-48.401a563.464 563.464 0 0 1 28.659-74.641c9.808-21.017 21.144-41.779 26.239-64.451 3.184-14.012 3.82-29.042.127-42.925a47.693 47.693 0 0 0-1.91-5.604l40.631 5.477c4.332 97.822-51.203 161-86.995 223.795Z" opacity=".1"/><path fill="#40c0d7" fill-rule="evenodd" d="m1400.284 1064.634 1.274 2.675c-18.342 4.076-42.543 10.699-68.145 14.647-48.275 7.388-101.134 5.477-127.247-40.377 65.853-69.546 55.408-95.912 46.237-124.061l-.127-.128c-.382-1.273-.765-2.42-1.146-3.693-6.624-21.527-10.573-45.345 22.162-91.073q50.25-22.736 115.656 1.02 12.418 30.568 16.813 73.494 7.26 68.208-5.477 167.496Z"/><path fill-rule="evenodd" d="m1400.284 1064.634 1.274 2.675c-18.342 4.076-42.543 10.699-68.145 14.647a209.549 209.549 0 0 1 27.003-39.868c34.9-41.013 12.228-79.353 14.266-103.3 2.038-23.818-44.963-21.27-44.963-21.27s-41.014 34.263-77.316 0l-.127-.128c-.382-1.273-.765-2.42-1.146-3.693 21.398 9.17 53.242 15.284 66.87-5.86 10.063-15.667 58.465-13.502 87.761-10.699q7.26 68.208-5.477 167.496Z" opacity=".1"/><path fill="#ffc7a1" fill-rule="evenodd" d="M1313.74 812.555q12.826 28.085 32.042.67-9.154-9.466-.084-34.925l-26.2-1.65q9.781 26.038-5.758 35.905Z"/><path fill="#ffc7a1" fill-rule="evenodd" d="M1302.579 737.085q-5.637 29.767 3.53 61.13 8.704 13.869 43.252-10.583l-5.932-55.544Z"/><path fill="#8fd80f" d="M1097.366 429.954a120.762 120.762 0 0 1-52.238 99.495 120.733 120.733 0 0 1 0-198.99 120.762 120.762 0 0 1 52.238 99.495Z"/><path fill="#fff" d="M1076.153 386.217a2.663 2.663 0 0 0-3.735.32l-24.695 29.345V366.95a2.649 2.649 0 0 0-5.298 0v93.079l-41.628-35.071a2.651 2.651 0 0 0-3.415 4.056l45.043 37.948v62.485a2.649 2.649 0 1 0 5.298 0v-105.33l28.75-34.165a2.655 2.655 0 0 0-.32-3.735Z"/><path fill="#8fd80f" d="M1188.522 594.789a84.89 84.89 0 0 1-73.588 28.722 84.87 84.87 0 0 1 91.73-105.606 84.891 84.891 0 0 1-18.142 76.884Z"/><path fill="#fff" d="M1197.426 561.798a1.872 1.872 0 0 0-2.13-1.552l-26.633 4.19 22.557-25.969a1.862 1.862 0 1 0-2.812-2.442l-42.907 49.398-5.926-37.802a1.864 1.864 0 0 0-3.682.579l6.412 40.903-28.805 33.161a1.862 1.862 0 1 0 2.812 2.443l48.555-55.9 31.007-4.878a1.866 1.866 0 0 0 1.552-2.13Z"/><path fill="#8fd80f" d="M934.188 504.354a84.89 84.89 0 0 1 28.723 73.588 84.87 84.87 0 0 1-105.607-91.73 84.89 84.89 0 0 1 76.884 18.142Z"/><path fill="#fff" d="M901.197 495.45a1.872 1.872 0 0 0-1.551 2.13l4.19 26.633-25.97-22.557a1.862 1.862 0 0 0-2.442 2.812l49.398 42.908-37.802 5.925a1.864 1.864 0 1 0 .579 3.682l40.903-6.411 33.161 28.804a1.862 1.862 0 1 0 2.443-2.812l-55.9-48.555-4.878-31.007a1.866 1.866 0 0 0-2.13-1.552Z"/><path fill="#8fd80f" d="M1129.78 1002.086c-105.742-50.066-81.586-281.982-81.312-284.687v-66.635h43.56l27.279-27.285-4.801-4.801-25.289 25.294h-40.75v-125.95h-6.79l.01 96.296H1003.9l-41.857-41.857-4.802 4.802 43.847 43.847h40.601l.012 95.915c-1.07 9.74-24.927 239.062 85.169 291.193 102.11 48.35 142.947 109.555 124.836 187.099l-.697 2.998c-66.137 283.94-183.622 435.831-339.754 439.24-192.553 4.229-215.055-19.555-215.789-29.966-1.324-18.969 60.92-46.832 105.724-52.143 24.977-2.96 37.217-8.944 36.384-17.788-1.798-19.031-74.695-34.48-180.313-27.017-76.443 5.386-107.092-11.792-119.357-27.142a43.545 43.545 0 0 1-8.173-37.726l-6.493-1.978c-.286.945-6.928 23.46 9.274 43.834 19.273 24.231 61.435 34.27 125.221 29.779 112.142-7.85 172.154 11.07 173.08 20.885.18 1.878-4.944 7.388-30.419 10.41-40.358 4.79-113.579 32.491-111.694 59.359 1.71 24.43 62.125 36.77 179.753 36.77q20.328 0 42.951-.486c111.278-2.438 261.676-81.524 346.223-444.489l.696-2.998c18.944-81.138-23.111-144.85-128.543-194.773Z"/><path fill="#ffc7a1" fill-rule="evenodd" d="M1037.655 705.943c12.538 8.956 14.334 19.71 9.758 32.881s-13.867 9.632-13.867 9.632ZM1459.768 1053.68q-24.457 28.659-200.36 43.434l-1.655-7.387-3.439-15.031 162.401-49.93q-23.31-59.993-43.435-125.845c-10.954-32.225-2.801-82.92 16.305-76.424 14.775 8.534 34.772 44.071 50.694 85.34 21.399 55.535 35.41 121.514 19.489 145.843Z"/><path fill="#ffc7a1" fill-rule="evenodd" d="M1259.408 1097.114s-23.436 22.29-35.154 4.458c-.892-1.401-1.783-2.802-2.548-4.203-8.152-17.323-.255-37.575 32.608-22.673l3.44 15.03Z"/><path fill-rule="evenodd" d="M1459.768 1053.68q-24.457 28.659-200.36 43.434s-23.436 22.29-35.154 4.458c-.892-1.401-1.783-2.802-2.548-4.203 4.713-3.567 10.827-5.477 16.941-6.369 6.369-1.019 12.738-.892 19.106-1.273 1.91-.128 3.821-.255 5.731-.51 10.828-1.401 21.017-5.222 31.462-8.152 28.277-8.024 57.827-9.553 86.614-14.648 21.909-3.948 46.11-12.1 54.898-32.48 8.025-18.47.127-39.614-2.293-59.738-2.547-21.017 1.529-41.652 5.477-62.286.255-1.4.51-2.803.637-4.076 21.399 55.535 35.41 121.514 19.489 145.843Z" opacity=".1"/><path fill-rule="evenodd" d="M1317.278 760.594c-3.86-2.602-7.178 2.393-11.794 1.784-4.399-.581-7.706-1.047-10.415-4.561-7.24-9.392-6.955-18.377-4.7-30.02 1.656-8.557 4.446-13.98 11.442-19.18 4.918-3.654 9.143-4.521 15.23-3.814 14.82 1.723 19.335 14.628 33.968 17.55 7.681 1.535 12.583-4.166 20.003-1.656 2.548.862 3.436 2.52 5.114 4.622 2.42 3.033 4.458 4.813 4.865 8.672 1.073 10.173-9.68 14.983-7.773 25.033 2.432 12.816 15.005 14.444 20.915 26.072 2.339 4.602 1.039 8.207 3.457 12.767 2.98 5.623 7.986 6.574 10.635 12.36 4.105 8.965 6.301 15.47 3.728 24.988-.075.275-.462.284-.457.569 1.118 60.465 94.221 57.136 101.391 117.185 4.59 38.436-12.23 68.247-45.412 88.18-10.718 6.437-21.159 5.741-32.033-.428-15.823-8.978-10.93-27.514-24.445-39.693-29.815-26.87-70.52-11.103-92.687-44.563-15.008-22.655-4.915-42.426-3.312-69.554 1.867-31.592 14.466-48.354 13.37-79.983-.644-18.58 4.33-35.942-11.09-46.33Z"/><path fill="#2b808f" d="m342.584 828.557-119.337 50.515a10.81 10.81 0 0 1-14.168-5.74l-31.185-73.674a10.81 10.81 0 0 1 5.74-14.168l119.338-50.514a10.81 10.81 0 0 1 14.167 5.74l31.186 73.673a10.809 10.809 0 0 1-5.74 14.168Z"/><path fill="#fff" d="M200.479 764.129H325.74a9.715 9.715 0 0 1 9.715 9.715v66.36a9.715 9.715 0 0 1-9.715 9.715H200.479a9.715 9.715 0 0 1-9.715-9.715v-66.36a9.715 9.715 0 0 1 9.715-9.715Z" transform="rotate(-22.943 263.11 807.024)"/><path fill="#154048" d="m294.917 854.327-2.223-5.251-19.988 8.46 2.223 5.251-17.579 21.338c2.848 6.728 67.971-20.838 65.123-27.566Z"/><path fill="#2b808f" d="m781.28 865.155-10.78 14.167a22.93 22.93 0 0 1-32.14 4.364l-4.467-3.4a22.93 22.93 0 0 1-4.363-32.14l10.78-14.166Z"/><path d="m781.28 865.155-10.78 14.167a22.93 22.93 0 0 1-32.14 4.364l-4.467-3.4a22.93 22.93 0 0 1-4.363-32.14l.194-.255c3.35 2.75 5.114 7.318 7.333 11.022 4.154 6.99 11.91 12.69 19.683 10.947 3.985-.999 7.373-3.862 9.898-7.18a40.77 40.77 0 0 0 3.027-6.363Z" opacity=".1"/><path fill="#154048" d="M755.962 855.953a51.372 51.372 0 1 1 71.99-9.774 51.432 51.432 0 0 1-71.99 9.774Zm52.505-69.001a35.334 35.334 0 1 0 6.722 49.516 35.373 35.373 0 0 0-6.722-49.516Z"/><path fill="#2b808f" d="M825.898 764.045a5.656 5.656 0 0 1-1.077-7.927l8.867-11.652a5.656 5.656 0 0 1 7.926-1.076 5.656 5.656 0 0 1 1.077 7.927l-8.867 11.652a5.656 5.656 0 0 1-7.926 1.076ZM795.184 751.468a5.656 5.656 0 0 1-4.895-6.327l1.852-14.524a5.656 5.656 0 0 1 6.327-4.895 5.656 5.656 0 0 1 4.895 6.326l-1.853 14.524a5.656 5.656 0 0 1-6.326 4.896ZM846.208 790.294a5.656 5.656 0 0 0 7.403 3.031l13.504-5.658a5.656 5.656 0 0 0 3.032-7.402 5.656 5.656 0 0 0-7.403-3.032l-13.505 5.658a5.656 5.656 0 0 0-3.031 7.403Z"/></g></g></svg>