<svg width="82" height="18" viewBox="0 0 82 18" fill="none" xmlns="http://www.w3.org/2000/svg">
<path d="M7 0.991999H9.328C9.04 4.688 8.92 8.384 8.776 12.056C8.704 13.784 8.68 17.264 3.712 17.264C2.56 17.264 1.408 17.072 0.28 16.832L0.136 15.008C1.192 15.32 2.392 15.656 3.496 15.656C4.696 15.656 6.064 15.08 6.448 13.544C6.808 12.056 6.904 6.776 7 0.991999ZM16.5207 11.792H10.6167L10.6887 10.184H16.5927L16.5207 11.792ZM21.9213 17L16.7373 0.991999H19.0173C20.3613 5.696 21.7773 10.376 23.2893 15.032C24.4893 12.536 25.6413 10.04 26.6973 7.496C26.0253 5.312 25.3053 3.152 24.5373 0.991999H26.8413L27.9693 4.904C28.5693 3.632 29.0973 2.312 29.5773 0.991999H31.9053C30.8493 3.152 29.8412 5.312 28.8573 7.496C29.6013 10.04 30.3932 12.56 31.2573 15.032C33.3693 10.4 35.4333 5.72 37.4013 0.991999H39.6813L32.3133 17H29.8653C29.1933 14.672 28.4493 12.368 27.6333 10.088C26.4813 12.344 25.4013 14.672 24.3693 17H21.9213ZM52.1661 9.44L56.9901 17H54.4941C53.0061 13.976 51.1101 11.168 49.4061 8.264C49.9101 8.36 50.4381 8.432 50.9661 8.432C53.0541 8.432 55.0221 7.4 55.0221 5.072C55.0221 2.864 53.3901 2.552 52.0941 2.552H48.6381C48.4221 7.352 48.2541 12.176 48.2061 17H45.9021C46.2621 12.104 46.5261 7.4 46.5501 0.991999H52.6701C54.9741 0.991999 57.2301 1.928 57.2301 4.856C57.2301 7.304 55.4301 9.344 52.1661 9.44ZM60.0038 0.991999H70.3718L70.2758 2.648C68.7638 2.552 67.2518 2.552 65.7398 2.552H62.1638L61.9478 8.096H69.2678L69.1718 9.656H61.8758L61.6358 15.44H64.1558C66.0518 15.44 67.9238 15.416 69.7958 15.296L69.6998 17H59.3318C59.7158 11.672 59.9318 6.344 60.0038 0.991999ZM80.9924 1.088L81.1604 2.96C80.1044 2.576 79.0244 2.336 77.8964 2.336C75.8804 2.336 74.8724 3.464 74.8724 4.52C74.8724 7.496 81.6164 9.464 81.6164 13.28C81.6164 16.256 78.8804 17.264 76.3604 17.264C74.9444 17.264 73.5764 16.952 72.2324 16.592L72.0644 14.624C73.2884 15.2 74.7284 15.656 76.0964 15.656C77.5844 15.656 79.4084 15.176 79.4084 13.16C79.4084 10.616 72.6644 8.072 72.6644 4.76C72.6644 2.456 74.1524 0.727999 77.6564 0.727999C78.7844 0.727999 79.8884 0.896 80.9924 1.088Z" fill="white"/>
<path d="M40.8246 5.12H42.9606C42.6726 9.08 42.5286 13.04 42.5046 17H40.2966C40.6086 13.04 40.7766 9.08 40.8246 5.12ZM43.0806 2.648H40.8246L40.8726 0.991999H43.1286L43.0806 2.648Z" fill="#FF0202"/>
</svg>
